<svg xmlns="http://www.w3.org/2000/svg" viewBox="0 0 512 512" role="img" aria-label="Online Tools Hub">
  <defs>
    <linearGradient id="background" x1="54" y1="38" x2="458" y2="474" gradientUnits="userSpaceOnUse">
      <stop stop-color="#8174f5"/>
      <stop offset="0.52" stop-color="#6252d5"/>
      <stop offset="1" stop-color="#40338f"/>
    </linearGradient>
  </defs>
  <rect x="20" y="20" width="472" height="472" rx="132" fill="url(#background)"/>
  <circle cx="256" cy="256" r="158" fill="#ffffff" opacity="0.08"/>
  <g fill="none" stroke="#ffffff" stroke-width="42" stroke-linecap="round" stroke-linejoin="round">
    <path d="M216 132c-52 0-70 27-70 70v31c0 18-10 23-35 23 25 0 35 5 35 23v31c0 43 18 70 70 70"/>
    <path d="M296 132c52 0 70 27 70 70v31c0 18 10 23 35 23-25 0-35 5-35 23v31c0 43-18 70-70 70"/>
  </g>
</svg>
