<svg xmlns="http://www.w3.org/2000/svg" viewBox="0 0 64 64" role="img" aria-label="Online Tools Hub">
  <defs>
    <linearGradient id="g" x1="8" y1="6" x2="57" y2="60" gradientUnits="userSpaceOnUse">
      <stop stop-color="#7668ef"/>
      <stop offset="1" stop-color="#4c3ebc"/>
    </linearGradient>
  </defs>
  <rect width="64" height="64" rx="18" fill="url(#g)"/>
  <path d="M27 16c-6 0-8 3-8 8v4c0 3-1 4-4 4 3 0 4 1 4 4v4c0 5 2 8 8 8M37 16c6 0 8 3 8 8v4c0 3 1 4 4 4-3 0-4 1-4 4v4c0 5-2 8-8 8" fill="none" stroke="#fff" stroke-width="5" stroke-linecap="round" stroke-linejoin="round"/>
</svg>
